<?xml version="1.0" encoding="UTF-8"?><svg id="Farbe" xmlns="http://www.w3.org/2000/svg" viewBox="0 0 283.46 283.46"><defs><style>.cls-1{fill:none;}.cls-2{fill:#1d1d1b;}.cls-3{fill:#fff;}.cls-4{fill:#e30613;}</style></defs><circle class="cls-3" cx="141.68" cy="141.8" r="95.38"/><path class="cls-4" d="M141.68,239.18c-53.7,0-97.38-43.68-97.38-97.38s43.68-97.38,97.38-97.38,97.38,43.68,97.38,97.38-43.68,97.38-97.38,97.38ZM141.68,48.42c-51.49,0-93.38,41.89-93.38,93.38s41.89,93.38,93.38,93.38,93.38-41.89,93.38-93.38-41.89-93.38-93.38-93.38Z"/><path class="cls-4" d="M111.46,161.19l.42-24.18h4.57l3.43,16.75,3.58-16.75h4.42l.45,24.18h-3.28l-.36-16.8-3.43,16.8h-2.66l-3.49-16.86-.33,16.86h-3.31Z"/><path class="cls-4" d="M131.23,161.19l4.84-24.18h4.72l4.84,24.18h-4.09l-.96-5.58h-4.21l-.99,5.58h-4.15ZM136.81,152.8h3.28l-1.64-10.15-1.64,10.15Z"/><path class="cls-4" d="M149.85,161.19v-20.92h-3.85v-3.25h12.06v3.25h-3.79v20.92h-4.42Z"/><path class="cls-4" d="M160.92,161.19v-24.18h4.36v24.18h-4.36Z"/><path class="cls-4" d="M169.55,161.19v-24.18h3.07l5.88,13.79v-13.79h3.64v24.18h-2.93l-5.91-14.45v14.45h-3.76Z"/><path class="cls-4" d="M186.36,161.19v-24.18h10.15v3.1h-5.73v6.95h4.51v3.07h-4.51v8h5.79v3.04h-10.21Z"/><path class="cls-4" d="M199.77,161.19v-24.18h10.15v3.1h-5.73v6.95h4.51v3.07h-4.51v8h5.79v3.04h-10.21Z"/><path class="cls-2" d="M111.55,188.45v-9.41h1.71v8.23h2.27v1.19h-3.98Z"/><path class="cls-2" d="M119.31,188.45l1.88-9.41h1.83l1.88,9.41h-1.59l-.37-2.17h-1.63l-.38,2.17h-1.61ZM121.48,185.18h1.27l-.64-3.95-.64,3.95Z"/><path class="cls-2" d="M129.26,188.45v-9.41h1.19l2.28,5.37v-5.37h1.41v9.41h-1.13l-2.29-5.62v5.62h-1.46Z"/><path class="cls-2" d="M141.39,188.58c-.62,0-1.11-.13-1.47-.4-.36-.26-.62-.64-.78-1.12-.16-.48-.24-1.06-.24-1.71v-3.16c0-.67.08-1.25.23-1.74.15-.49.43-.86.82-1.12.39-.26.93-.39,1.62-.39.64,0,1.15.11,1.53.33.38.22.65.53.82.94.17.41.25.9.25,1.48v.49h-1.63v-.53c0-.3-.02-.56-.06-.78-.04-.22-.13-.38-.25-.49-.13-.11-.33-.17-.62-.17-.3,0-.52.07-.65.22-.13.15-.22.34-.25.58-.03.24-.05.5-.05.79v3.94c0,.33.03.61.08.85.05.24.15.42.3.55.15.13.36.19.63.19s.49-.07.64-.21.25-.33.31-.58c.06-.25.09-.54.09-.88v-.88h-1.01v-1.08h2.55v4.78h-1.1l-.13-.93c-.12.31-.31.56-.56.76-.25.2-.59.3-1.02.3Z"/><path class="cls-2" d="M148.98,188.45v-9.41h3.94v1.21h-2.22v2.71h1.75v1.2h-1.75v3.11h2.25v1.19h-3.96Z"/><path class="cls-2" d="M157.41,188.45v-9.41h1.19l2.28,5.37v-5.37h1.41v9.41h-1.13l-2.29-5.62v5.62h-1.46Z"/><path class="cls-2" d="M167.22,188.45v-9.41h1.7v3.94h1.91v-3.94h1.71v9.41h-1.71v-4.25h-1.91v4.25h-1.7Z"/><path class="cls-2" d="M176.98,188.45l1.88-9.41h1.83l1.88,9.41h-1.59l-.37-2.17h-1.63l-.38,2.17h-1.61ZM179.14,185.18h1.27l-.64-3.95-.64,3.95Z"/><path class="cls-2" d="M189.22,188.58c-.62,0-1.11-.13-1.47-.4-.36-.26-.62-.64-.78-1.12-.16-.48-.24-1.06-.24-1.71v-3.16c0-.67.08-1.25.23-1.74.15-.49.43-.86.82-1.12.39-.26.93-.39,1.61-.39.64,0,1.15.11,1.53.33.38.22.65.53.82.94.17.41.25.9.25,1.48v.49h-1.63v-.53c0-.3-.02-.56-.06-.78-.04-.22-.13-.38-.25-.49-.13-.11-.33-.17-.62-.17-.3,0-.52.07-.65.22-.13.15-.22.34-.25.58-.04.24-.05.5-.05.79v3.94c0,.33.03.61.08.85.05.24.15.42.3.55.15.13.35.19.63.19s.49-.07.64-.21.25-.33.31-.58c.06-.25.09-.54.09-.88v-.88h-1.01v-1.08h2.55v4.78h-1.1l-.13-.93c-.12.31-.31.56-.56.76-.25.2-.59.3-1.03.3Z"/><path class="cls-2" d="M196.81,188.45v-9.41h3.94v1.21h-2.22v2.71h1.75v1.2h-1.75v3.11h2.25v1.19h-3.96Z"/><path class="cls-2" d="M205.1,188.45v-9.41h1.19l2.28,5.37v-5.37h1.41v9.41h-1.13l-2.29-5.62v5.62h-1.46Z"/><rect class="cls-2" x="111.53" y="169.15" width="98.42" height="2"/><path class="cls-2" d="M111.57,129.4v-3.41c1.04,0,1.88-.07,2.53-.21s1.14-.39,1.49-.76c.35-.36.6-.89.74-1.58.14-.69.21-1.56.21-2.63v-26.31h4.72v26.4c0,1.97-.21,3.57-.63,4.82-.42,1.25-1.17,2.18-2.23,2.78-1.07.6-2.58.9-4.55.9h-2.27Z"/><path class="cls-2" d="M125.5,128.6l7.24-34.1h4.59l7.28,34.1h-4.5l-1.56-8.59h-6.95l-1.64,8.59h-4.46ZM132.24,116.6h5.68l-2.86-15.37-2.82,15.37Z"/><path class="cls-2" d="M147.77,128.6v-3.41l10.02-27.28h-9.39v-3.41h14.44v2.06l-10.57,28.63h10.57v3.41h-15.07Z"/><path class="cls-2" d="M166.09,128.6v-3.41l10.02-27.28h-9.39v-3.41h14.44v2.06l-10.57,28.63h10.57v3.41h-15.07Z"/><path class="cls-2" d="M126.16,73.61c-1.04.35-2.64.83-3.68.82-.84-.01-1.36-.15-1.66-.29-.28-.13-.59-.12-.86.03l-6.43,3.61c-.28.16-.38.54-.22.85l.09.14,1.51,2.33s.02.02.03.04c.17.29.52.4.79.23l6.69-4.31s2.52-1.66,3.98-2.99c.2-.18.02-.54-.23-.46Z"/><path class="cls-1" d="M89.63,181.3c1.41-1.04.82-2.95.86-4.6l-1.32.08.12,2.73c.02.54-.05,1.08-.58,1.44l-.94.65c.64.25,1.34.09,1.85-.3Z"/><path class="cls-1" d="M83.12,166.8c1.08-1.15,1.34-2.79.81-4.31l2.85-1.85-.62-12.99-1.47.21-2.7,1.3c1.46,3.51,2.71,6.22,3.74,10.33l-2.67,1.63c-1.35-1.41-3.49-1.4-4.8.07-1.47,1.65-1.35,4.28.28,5.77,1.35,1.24,3.34,1.15,4.58-.18Z"/><path class="cls-1" d="M91.09,157.81c.5,1.16,1.27,1.92,2.56,1.88.59-.02,1.29-.34,1.76-.97.87-1.15.78-2.73-.14-3.79-.91-1.05-2.42-1.14-3.42-.19-.41.39-.66.91-.82,1.45l-1.29.08-.18-4.85-1.61.06.31,6.45,2.83-.13Z"/><path class="cls-1" d="M89.63,181.3c1.41-1.04.82-2.95.86-4.6l-1.32.08.12,2.73c.02.54-.05,1.08-.58,1.44l-.94.65c.64.25,1.34.09,1.85-.3Z"/><path class="cls-1" d="M92.76,162.64c-.76.4-1.18,1.15-1.41,2l-1.3.04-.19-5.15c-.5-.02-.96,0-1.52.05l.32,6.8,2.75-.14c.27.72.66,1.32,1.32,1.71.99.58,2.22.44,3.06-.44,1.23-1.3,1.1-3.35-.19-4.53-.8-.73-1.9-.85-2.86-.34Z"/><path class="cls-1" d="M94.51,179.97l-3.06,4.1c-.55-.23-1.16-.33-1.79-.23-1.86.27-3.14,2-2.87,3.85s2,3.14,3.85,2.87c1.86-.27,3.14-2,2.87-3.85-.09-.61-.35-1.15-.71-1.6l3.06-4.11-1.37-1.02Z"/><path class="cls-1" d="M92.79,171.53c-.6.48-.92,1.14-1.11,1.89l-1.3.06-.21-5.55-1.43.04.34,7.16,2.68-.11c.25.75.63,1.35,1.27,1.78,1.18.8,2.76.52,3.63-.69.98-1.37.83-3.24-.33-4.39-1-.99-2.46-1.06-3.54-.2Z"/><path class="cls-1" d="M89.63,181.3c1.41-1.04.82-2.95.86-4.6l-1.32.08.12,2.73c.02.54-.05,1.08-.58,1.44l-.94.65c.64.25,1.34.09,1.85-.3Z"/><path class="cls-1" d="M83.12,166.8c1.08-1.15,1.34-2.79.81-4.31l2.85-1.85-.62-12.99-1.47.21-2.7,1.3c1.46,3.51,2.71,6.22,3.74,10.33l-2.67,1.63c-1.35-1.41-3.49-1.4-4.8.07-1.47,1.65-1.35,4.28.28,5.77,1.35,1.24,3.34,1.15,4.58-.18Z"/><path class="cls-1" d="M92.76,162.64c-.76.4-1.18,1.15-1.41,2l-1.3.04-.19-5.15c-.5-.02-.96,0-1.52.05l.32,6.8,2.75-.14c.27.72.66,1.32,1.32,1.71.99.58,2.22.44,3.06-.44,1.23-1.3,1.1-3.35-.19-4.53-.8-.73-1.9-.85-2.86-.34Z"/><path class="cls-1" d="M91.09,157.81c.5,1.16,1.27,1.92,2.56,1.88.59-.02,1.29-.34,1.76-.97.87-1.15.78-2.73-.14-3.79-.91-1.05-2.42-1.14-3.42-.19-.41.39-.66.91-.82,1.45l-1.29.08-.18-4.85-1.61.06.31,6.45,2.83-.13Z"/><path class="cls-1" d="M94.18,112.95l-1.86.06c-.32-.46-.65-.79-1.21-.85-.41-.04-.91.12-1.25.52-.68.83-.54,2.11.38,2.71.77.5,1.76.13,2.12-.74l1.07-.07.34,4.63c-.3.06-.66.08-.94.03-.28-.56-.75-.91-1.32-.98-.54-.06-1.1.18-1.46.66-.39.51-.5,1.12-.33,1.78.14.51.52,1.08,1.16,1.29.85.28,1.71-.2,2.03-1.07.3-.05.61-.07.98-.05l.38,4.98-.85.04c-.44-1.06-1.66-1.53-2.61-.92-.67.43-.99,1.15-.93,1.99.05.65.42,1.39,1.14,1.73,1.01.48,2.1-.08,2.47-1.15.29-.04.58-.05.9-.05l.4,5.34-.78.05c-.39-.99-1.36-1.58-2.4-1.3-.79.22-1.31.92-1.45,1.72-.19,1.1.33,2.24,1.41,2.62,1.11.39,2.17-.31,2.5-1.42l.84-.04.43,5.71-.72.05c-.29-.76-.87-1.38-1.7-1.53-1.05-.19-1.99.45-2.37,1.44-.33.86-.17,1.87.41,2.59.42.52.99.83,1.67.82,1,0,1.73-.72,2.07-1.72.19-.02.47-.03.76,0l.78,10.42c.04.47.34.81.78.82.4.01.87-.32.83-.84l-2.89-38.53c-.03-.43-.37-.76-.78-.75Z"/><path class="cls-1" d="M94.51,179.97l-3.06,4.1c-.55-.23-1.16-.33-1.79-.23-1.86.27-3.14,2-2.87,3.85s2,3.14,3.85,2.87c1.86-.27,3.14-2,2.87-3.85-.09-.61-.35-1.15-.71-1.6l3.06-4.11-1.37-1.02Z"/><path class="cls-1" d="M92.79,171.53c-.6.48-.92,1.14-1.11,1.89l-1.3.06-.21-5.55-1.43.04.34,7.16,2.68-.11c.25.75.63,1.35,1.27,1.78,1.18.8,2.76.52,3.63-.69.98-1.37.83-3.24-.33-4.39-1-.99-2.46-1.06-3.54-.2Z"/><path class="cls-1" d="M89.63,181.3c1.41-1.04.82-2.95.86-4.6l-1.32.08.12,2.73c.02.54-.05,1.08-.58,1.44l-.94.65c.64.25,1.34.09,1.85-.3Z"/><path class="cls-1" d="M83.12,166.8c1.08-1.15,1.34-2.79.81-4.31l2.85-1.85-.62-12.99-1.47.21-2.7,1.3c1.46,3.51,2.71,6.22,3.74,10.33l-2.67,1.63c-1.35-1.41-3.49-1.4-4.8.07-1.47,1.65-1.35,4.28.28,5.77,1.35,1.24,3.34,1.15,4.58-.18Z"/><path class="cls-1" d="M76.61,138.71c-1.11-.15-2.26.05-3.38.46-3.7,1.33-7.03,3.57-9.66,6.43-.9.97-2.55,3.18-1.73,4.42.84,1.27,3.66.49,4.94,0,3.62-1.41,6.87-3.65,9.41-6.52.81-.91,1.41-1.88,1.67-3,.21-.89-.3-1.64-1.24-1.77Z"/><path class="cls-1" d="M91.09,157.81c.5,1.16,1.27,1.92,2.56,1.88.59-.02,1.29-.34,1.76-.97.87-1.15.78-2.73-.14-3.79-.91-1.05-2.42-1.14-3.42-.19-.41.39-.66.91-.82,1.45l-1.29.08-.18-4.85-1.61.06.31,6.45,2.83-.13Z"/><path class="cls-1" d="M92.76,162.64c-.76.4-1.18,1.15-1.41,2l-1.3.04-.19-5.15c-.5-.02-.96,0-1.52.05l.32,6.8,2.75-.14c.27.72.66,1.32,1.32,1.71.99.58,2.22.44,3.06-.44,1.23-1.3,1.1-3.35-.19-4.53-.8-.73-1.9-.85-2.86-.34Z"/><path class="cls-1" d="M92.79,171.53c-.6.48-.92,1.14-1.11,1.89l-1.3.06-.21-5.55-1.43.04.34,7.16,2.68-.11c.25.75.63,1.35,1.27,1.78,1.18.8,2.76.52,3.63-.69.98-1.37.83-3.24-.33-4.39-1-.99-2.46-1.06-3.54-.2Z"/><path class="cls-1" d="M94.18,112.95l-1.86.06c-.32-.46-.65-.79-1.21-.85-.41-.04-.91.12-1.25.52-.68.83-.54,2.11.38,2.71.77.5,1.76.13,2.12-.74l1.07-.07.34,4.63c-.3.06-.66.08-.94.03-.28-.56-.75-.91-1.32-.98-.54-.06-1.1.18-1.46.66-.39.51-.5,1.12-.33,1.78.14.51.52,1.08,1.16,1.29.85.28,1.71-.2,2.03-1.07.3-.05.61-.07.98-.05l.38,4.98-.85.04c-.44-1.06-1.66-1.53-2.61-.92-.67.43-.99,1.15-.93,1.99.05.65.42,1.39,1.14,1.73,1.01.48,2.1-.08,2.47-1.15.29-.04.58-.05.9-.05l.4,5.34-.78.05c-.39-.99-1.36-1.58-2.4-1.3-.79.22-1.31.92-1.45,1.72-.19,1.1.33,2.24,1.41,2.62,1.11.39,2.17-.31,2.5-1.42l.84-.04.43,5.71-.72.05c-.29-.76-.87-1.38-1.7-1.53-1.05-.19-1.99.45-2.37,1.44-.33.86-.17,1.87.41,2.59.42.52.99.83,1.67.82,1,0,1.73-.72,2.07-1.72.19-.02.47-.03.76,0l.78,10.42c.04.47.34.81.78.82.4.01.87-.32.83-.84l-2.89-38.53c-.03-.43-.37-.76-.78-.75Z"/><path class="cls-1" d="M94.51,179.97l-3.06,4.1c-.55-.23-1.16-.33-1.79-.23-1.86.27-3.14,2-2.87,3.85s2,3.14,3.85,2.87c1.86-.27,3.14-2,2.87-3.85-.09-.61-.35-1.15-.71-1.6l3.06-4.11-1.37-1.02Z"/><path class="cls-1" d="M87.22,180.01c.25-.16.41-.36.44-.69l-.34-7.06-1.41.89.27,5.61-2.31,1.49c-1.18-1.07-2.95-1.02-4.07.14-1.4,1.46-1.37,3.86.12,5.29,1.22,1.16,2.99,1.1,4.13-.05,1.07-1.08,1.31-2.65.75-4.09l2.41-1.55Z"/><path class="cls-2" d="M102.59,90.35l10.49-8.09s-.02-.02-.03-.04l-1.51-2.33c-1.33.75-1.77.95-2.06,1.11l-11.63,6.5c-1.55.87-3,1.75-4.46,2.74-2.7,1.83-4.79,3.95-5.3,7.34-.29,1.92-.34,3.84-.27,5.81l1.62,44.76c.44.03.89.01,1.28-.03.32-.97,1-1.81,2.06-1.9.77-.07,1.43.23,1.91.77.86.98.95,2.45.17,3.5-.5.68-1.3,1.07-2.14.94-.93-.15-1.56-.81-1.91-1.69l-2.94.15-.72-15.05c-.02-.5-.33-.83-.81-.85-.43-.02-.84.35-.81.89l.53,11.1-1.76.26-2.95,1.39c-.74-1.95-1.53-4.48-1.28-6.1.61-1.27,2.06-3.18,1.5-4.8-.6-1.75-3.06-1.58-4.55-1.28-1.8.36-3.46.99-5.12,1.79-3.88,1.89-7.41,4.38-10.46,7.43-1.64,1.64-3.81,4.24-4.12,6.55-.12.88.22,1.73,1,2.14,1.4.74,3.38.31,4.89-.07,2.37.95,4.01,2.95,4.89,5.32,1.89,5.06,2.79,11.16,3.58,16.54l1.13,7.74c.36,2.48,1.43,4.75,3.03,6.67,5.5,6.6,16.72,6.44,22.6.64,2.4-2.38,3.79-5.76,3.52-9.21l-6.13-76.66c-.13-1.63-.16-3.23-.01-4.82.4-4.37,3.6-6.72,6.77-9.14ZM89.57,151.43l.18,4.85,1.29-.08c.17-.55.41-1.06.82-1.45,1-.95,2.51-.86,3.42.19.92,1.06,1,2.64.14,3.79-.47.63-1.17.95-1.76.97-1.29.04-2.06-.72-2.56-1.88l-2.83.13-.31-6.45,1.61-.06ZM95.8,167.5c-.84.89-2.07,1.02-3.06.44-.67-.39-1.05-.99-1.32-1.71l-2.75.14-.32-6.8c.56-.05,1.02-.07,1.52-.05l.19,5.15,1.3-.04c.23-.84.65-1.59,1.41-2,.95-.51,2.06-.39,2.86.34,1.29,1.17,1.42,3.23.19,4.53ZM88.71,180.95c.53-.36.6-.9.58-1.44l-.12-2.73,1.32-.08c-.03,1.64.55,3.55-.86,4.6-.52.39-1.22.55-1.85.3l.94-.65ZM76.18,143.48c-2.54,2.87-5.8,5.11-9.41,6.52-1.27.5-4.1,1.28-4.94,0-.81-1.24.84-3.44,1.73-4.42,2.64-2.86,5.96-5.1,9.66-6.43,1.13-.41,2.27-.61,3.38-.46.94.13,1.45.89,1.24,1.77-.26,1.12-.87,2.09-1.67,3ZM78.25,161.2c1.32-1.47,3.45-1.48,4.8-.07l2.67-1.63c-1.03-4.11-2.28-6.83-3.74-10.33l2.7-1.3,1.47-.21.62,12.99-2.85,1.85c.54,1.52.27,3.16-.81,4.31-1.24,1.33-3.23,1.42-4.58.18-1.63-1.5-1.76-4.13-.28-5.77ZM79,171.02c1.24-1.39,3.2-1.36,4.49-.14l2.25-1.46-.29-5.99,1.41-.92.38,7.84-2.86,1.86c.47,1.28.34,2.64-.41,3.75-1.12,1.64-3.33,1.92-4.77.52-1.49-1.45-1.62-3.88-.2-5.46ZM84.05,185.65c-1.14,1.15-2.92,1.21-4.13.05-1.5-1.43-1.52-3.83-.12-5.29,1.12-1.17,2.89-1.22,4.07-.14l2.31-1.49-.27-5.61,1.41-.89.34,7.06c-.03.33-.19.53-.44.69l-2.41,1.55c.55,1.44.32,3.01-.75,4.09ZM93.52,186.71c.27,1.86-1.01,3.58-2.87,3.85-1.86.27-3.58-1.01-3.85-2.87s1.01-3.58,2.87-3.85c.63-.09,1.24,0,1.79.23l3.06-4.1,1.37,1.02-3.06,4.11c.36.45.62.99.71,1.6ZM96.66,176.12c-.87,1.21-2.45,1.49-3.63.69-.64-.43-1.02-1.02-1.27-1.78l-2.68.11-.34-7.16,1.43-.04.21,5.55,1.3-.06c.19-.76.51-1.41,1.11-1.89,1.08-.86,2.54-.79,3.54.2,1.16,1.15,1.32,3.02.33,4.39ZM97.86,152.23c.04.53-.43.86-.83.84-.45-.02-.75-.35-.78-.82l-.78-10.42c-.29-.02-.57-.02-.76,0-.34.99-1.07,1.71-2.07,1.72-.68,0-1.25-.3-1.67-.82-.58-.71-.74-1.73-.41-2.59.38-.99,1.32-1.63,2.37-1.44.83.15,1.41.77,1.7,1.53l.72-.05-.43-5.71-.84.04c-.33,1.11-1.4,1.81-2.5,1.42-1.08-.38-1.6-1.52-1.41-2.62.14-.81.66-1.5,1.45-1.72,1.03-.29,2.01.31,2.4,1.3l.78-.05-.4-5.34c-.32,0-.6.02-.9.05-.37,1.08-1.46,1.64-2.47,1.15-.71-.34-1.09-1.09-1.14-1.73-.06-.84.26-1.56.93-1.99.95-.61,2.17-.14,2.61.92l.85-.04-.38-4.98c-.37-.01-.68,0-.98.05-.33.87-1.18,1.34-2.03,1.07-.64-.21-1.02-.78-1.16-1.29-.17-.66-.06-1.26.33-1.78.36-.47.92-.72,1.46-.66.57.07,1.04.42,1.32.98.28.06.64.03.94-.03l-.34-4.63-1.07.07c-.36.87-1.35,1.24-2.12.74-.92-.59-1.06-1.88-.38-2.71.33-.4.84-.56,1.25-.52.56.06.9.39,1.21.85l1.86-.06c.41-.01.75.32.78.75l2.89,38.53Z"/><path class="cls-2" d="M73.12,140.45c-3.12,1.1-5.97,2.95-8.24,5.36-1,1.06-1.85,2.49-1.46,3.07.18.27.66.33,1.03.33.83,0,1.88-.29,2.59-.56,3.09-1.18,5.87-3.06,8.03-5.44.72-.8,1.15-1.53,1.33-2.32.06-1.72-3.27-.44-3.27-.44Z"/><path class="cls-2" d="M75.06,143.21c-2.16,2.38-4.93,4.26-8.03,5.44-.71.27-1.76.56-2.59.56-.37,0-.84-.06-1.03-.33-.39-.57.46-2.01,1.46-3.07,2.27-2.41,5.12-4.26,8.24-5.36,0,0,3.34-1.27,3.27.44-.19.79-.61,1.52-1.33,2.32Z"/></svg>