<?xml version="1.0" encoding="UTF-8"?><svg id="Farbe" xmlns="http://www.w3.org/2000/svg" viewBox="0 0 324.24 156.5"><defs><style>.cls-1{fill:none;}.cls-2{fill:#1d1d1b;}.cls-3{fill:#e30613;}</style></defs><path class="cls-2" d="M81.29,34.99c-.75.25-1.9.6-2.64.59-.6,0-.97-.11-1.19-.21-.2-.09-.43-.09-.61.02l-4.62,2.59c-.2.12-.27.39-.16.61l.07.1,1.08,1.67s.01.02.02.03c.12.21.37.29.57.16l4.81-3.09s1.81-1.19,2.86-2.15c.14-.13.01-.39-.17-.33Z"/><path class="cls-1" d="M55.04,112.37c1.01-.75.59-2.12.61-3.3l-.95.05.09,1.96c.02.39-.04.78-.41,1.04l-.68.46c.46.18.96.06,1.33-.22Z"/><path class="cls-1" d="M50.36,101.96c.78-.83.96-2,.58-3.1l2.05-1.33-.44-9.34-1.05.15-1.94.93c1.05,2.52,1.95,4.47,2.69,7.43l-1.92,1.17c-.97-1.01-2.51-1.01-3.45.05-1.06,1.18-.97,3.07.2,4.15.97.89,2.4.83,3.29-.13Z"/><path class="cls-1" d="M56.09,95.49c.36.84.91,1.38,1.84,1.35.43-.01.93-.24,1.27-.69.62-.83.56-1.96-.1-2.72-.65-.75-1.74-.82-2.46-.14-.3.28-.47.65-.59,1.04l-.92.05-.13-3.48-1.16.04.22,4.63,2.03-.09Z"/><path class="cls-1" d="M55.04,112.37c1.01-.75.59-2.12.61-3.3l-.95.05.09,1.96c.02.39-.04.78-.41,1.04l-.68.46c.46.18.96.06,1.33-.22Z"/><path class="cls-1" d="M57.29,98.96c-.54.29-.85.83-1.01,1.43l-.93.03-.14-3.7c-.36-.01-.69,0-1.09.04l.23,4.88,1.98-.1c.19.52.47.95.95,1.23.71.42,1.6.32,2.2-.32.89-.93.79-2.41-.14-3.25-.58-.52-1.37-.61-2.05-.24Z"/><path class="cls-1" d="M58.55,111.42l-2.2,2.95c-.39-.16-.83-.23-1.28-.17-1.33.19-2.26,1.43-2.06,2.77s1.43,2.26,2.77,2.06c1.33-.19,2.26-1.43,2.06-2.77-.06-.44-.25-.83-.51-1.15l2.2-2.96-.98-.73Z"/><path class="cls-1" d="M57.31,105.35c-.43.35-.66.82-.8,1.36l-.93.05-.15-3.99-1.03.03.25,5.15,1.92-.08c.18.54.45.97.91,1.28.85.57,1.98.38,2.61-.5.71-.98.6-2.33-.24-3.16-.72-.71-1.77-.76-2.54-.14Z"/><path class="cls-1" d="M55.04,112.37c1.01-.75.59-2.12.61-3.3l-.95.05.09,1.96c.02.39-.04.78-.41,1.04l-.68.46c.46.18.96.06,1.33-.22Z"/><path class="cls-1" d="M50.36,101.96c.78-.83.96-2,.58-3.1l2.05-1.33-.44-9.34-1.05.15-1.94.93c1.05,2.52,1.95,4.47,2.69,7.43l-1.92,1.17c-.97-1.01-2.51-1.01-3.45.05-1.06,1.18-.97,3.07.2,4.15.97.89,2.4.83,3.29-.13Z"/><path class="cls-1" d="M57.29,98.96c-.54.29-.85.83-1.01,1.43l-.93.03-.14-3.7c-.36-.01-.69,0-1.09.04l.23,4.88,1.98-.1c.19.52.47.95.95,1.23.71.42,1.6.32,2.2-.32.89-.93.79-2.41-.14-3.25-.58-.52-1.37-.61-2.05-.24Z"/><path class="cls-1" d="M56.09,95.49c.36.84.91,1.38,1.84,1.35.43-.01.93-.24,1.27-.69.62-.83.56-1.96-.1-2.72-.65-.75-1.74-.82-2.46-.14-.3.28-.47.65-.59,1.04l-.92.05-.13-3.48-1.16.04.22,4.63,2.03-.09Z"/><path class="cls-1" d="M58.31,63.26l-1.34.04c-.23-.33-.47-.57-.87-.61-.3-.03-.66.08-.9.37-.49.6-.39,1.52.27,1.95.56.36,1.27.09,1.52-.53l.77-.05.25,3.33c-.21.04-.47.06-.67.02-.2-.4-.54-.65-.95-.7-.39-.04-.79.13-1.05.47-.28.37-.36.8-.24,1.28.1.37.38.78.83.93.61.2,1.23-.14,1.46-.77.22-.04.44-.05.7-.04l.27,3.58-.61.03c-.31-.76-1.19-1.1-1.87-.66-.48.31-.71.83-.67,1.43.03.47.3,1,.82,1.25.73.35,1.51-.06,1.78-.83.21-.03.42-.04.65-.04l.29,3.84-.56.04c-.28-.71-.98-1.14-1.72-.93-.57.16-.94.66-1.04,1.24-.14.79.23,1.61,1.01,1.88.79.28,1.56-.22,1.8-1.02l.6-.03.31,4.1-.52.04c-.21-.54-.62-.99-1.22-1.1-.76-.14-1.43.32-1.7,1.04-.24.62-.12,1.35.29,1.86.3.38.71.59,1.2.59.72,0,1.24-.52,1.49-1.23.13-.02.34-.02.55,0l.56,7.49c.03.34.24.58.56.59.29.01.62-.23.59-.61l-2.08-27.69c-.02-.31-.27-.55-.56-.54Z"/><path class="cls-1" d="M58.55,111.42l-2.2,2.95c-.39-.16-.83-.23-1.28-.17-1.33.19-2.26,1.43-2.06,2.77s1.43,2.26,2.77,2.06c1.33-.19,2.26-1.43,2.06-2.77-.06-.44-.25-.83-.51-1.15l2.2-2.96-.98-.73Z"/><path class="cls-1" d="M57.31,105.35c-.43.35-.66.82-.8,1.36l-.93.05-.15-3.99-1.03.03.25,5.15,1.92-.08c.18.54.45.97.91,1.28.85.57,1.98.38,2.61-.5.71-.98.6-2.33-.24-3.16-.72-.71-1.77-.76-2.54-.14Z"/><path class="cls-1" d="M55.04,112.37c1.01-.75.59-2.12.61-3.3l-.95.05.09,1.96c.02.39-.04.78-.41,1.04l-.68.46c.46.18.96.06,1.33-.22Z"/><path class="cls-1" d="M50.36,101.96c.78-.83.96-2,.58-3.1l2.05-1.33-.44-9.34-1.05.15-1.94.93c1.05,2.52,1.95,4.47,2.69,7.43l-1.92,1.17c-.97-1.01-2.51-1.01-3.45.05-1.06,1.18-.97,3.07.2,4.15.97.89,2.4.83,3.29-.13Z"/><path class="cls-1" d="M45.68,81.77c-.8-.11-1.62.04-2.43.33-2.66.96-5.05,2.56-6.94,4.62-.64.7-1.83,2.29-1.25,3.17.6.91,2.63.35,3.55,0,2.6-1.01,4.94-2.63,6.76-4.69.58-.65,1.01-1.35,1.2-2.16.15-.64-.22-1.18-.89-1.27Z"/><path class="cls-1" d="M56.09,95.49c.36.84.91,1.38,1.84,1.35.43-.01.93-.24,1.27-.69.62-.83.56-1.96-.1-2.72-.65-.75-1.74-.82-2.46-.14-.3.28-.47.65-.59,1.04l-.92.05-.13-3.48-1.16.04.22,4.63,2.03-.09Z"/><path class="cls-1" d="M57.29,98.96c-.54.29-.85.83-1.01,1.43l-.93.03-.14-3.7c-.36-.01-.69,0-1.09.04l.23,4.88,1.98-.1c.19.52.47.95.95,1.23.71.42,1.6.32,2.2-.32.89-.93.79-2.41-.14-3.25-.58-.52-1.37-.61-2.05-.24Z"/><path class="cls-1" d="M57.31,105.35c-.43.35-.66.82-.8,1.36l-.93.05-.15-3.99-1.03.03.25,5.15,1.92-.08c.18.54.45.97.91,1.28.85.57,1.98.38,2.61-.5.71-.98.6-2.33-.24-3.16-.72-.71-1.77-.76-2.54-.14Z"/><path class="cls-1" d="M58.31,63.26l-1.34.04c-.23-.33-.47-.57-.87-.61-.3-.03-.66.08-.9.37-.49.6-.39,1.52.27,1.95.56.36,1.27.09,1.52-.53l.77-.05.25,3.33c-.21.04-.47.06-.67.02-.2-.4-.54-.65-.95-.7-.39-.04-.79.13-1.05.47-.28.37-.36.8-.24,1.28.1.37.38.78.83.93.61.2,1.23-.14,1.46-.77.22-.04.44-.05.7-.04l.27,3.58-.61.03c-.31-.76-1.19-1.1-1.87-.66-.48.31-.71.83-.67,1.43.03.47.3,1,.82,1.25.73.35,1.51-.06,1.78-.83.21-.03.42-.04.65-.04l.29,3.84-.56.04c-.28-.71-.98-1.14-1.72-.93-.57.16-.94.66-1.04,1.24-.14.79.23,1.61,1.01,1.88.79.28,1.56-.22,1.8-1.02l.6-.03.31,4.1-.52.04c-.21-.54-.62-.99-1.22-1.1-.76-.14-1.43.32-1.7,1.04-.24.62-.12,1.35.29,1.86.3.38.71.59,1.2.59.72,0,1.24-.52,1.49-1.23.13-.02.34-.02.55,0l.56,7.49c.03.34.24.58.56.59.29.01.62-.23.59-.61l-2.08-27.69c-.02-.31-.27-.55-.56-.54Z"/><path class="cls-1" d="M58.55,111.42l-2.2,2.95c-.39-.16-.83-.23-1.28-.17-1.33.19-2.26,1.43-2.06,2.77s1.43,2.26,2.77,2.06c1.33-.19,2.26-1.43,2.06-2.77-.06-.44-.25-.83-.51-1.15l2.2-2.96-.98-.73Z"/><path class="cls-1" d="M53.31,111.45c.18-.12.3-.26.32-.5l-.25-5.07-1.01.64.19,4.03-1.66,1.07c-.85-.77-2.12-.74-2.93.1-1.01,1.05-.99,2.77.09,3.8.87.84,2.15.79,2.97-.03.77-.78.94-1.9.54-2.94l1.74-1.12Z"/><path class="cls-2" d="M64.35,47.02l7.54-5.81s-.01-.02-.02-.03l-1.08-1.67c-.95.54-1.27.68-1.48.8l-8.36,4.67c-1.12.62-2.16,1.25-3.21,1.97-1.94,1.32-3.44,2.84-3.81,5.27-.21,1.38-.24,2.76-.19,4.17l1.16,32.16c.32.02.64,0,.92-.02.23-.7.72-1.3,1.48-1.37.56-.05,1.03.16,1.37.56.62.71.68,1.76.13,2.51-.36.49-.93.77-1.54.67-.67-.11-1.12-.58-1.37-1.22l-2.12.11-.51-10.82c-.02-.36-.24-.6-.58-.61-.31-.01-.6.25-.58.64l.38,7.98-1.26.18-2.12,1c-.53-1.4-1.1-3.22-.92-4.39.44-.92,1.48-2.28,1.08-3.45-.43-1.26-2.2-1.13-3.27-.92-1.29.26-2.49.71-3.68,1.29-2.79,1.36-5.32,3.15-7.52,5.34-1.18,1.18-2.74,3.05-2.96,4.71-.08.63.16,1.25.72,1.54,1.01.53,2.43.22,3.51-.05,1.7.68,2.88,2.12,3.51,3.82,1.36,3.64,2,8.02,2.57,11.88l.81,5.56c.26,1.78,1.03,3.41,2.18,4.79,3.95,4.74,12.02,4.63,16.24.46,1.73-1.71,2.73-4.14,2.53-6.62l-4.4-55.09c-.09-1.17-.11-2.32,0-3.46.29-3.14,2.59-4.83,4.87-6.57ZM54.99,90.91l.13,3.48.92-.05c.12-.39.3-.76.59-1.04.72-.68,1.8-.62,2.46.14.66.76.72,1.89.1,2.72-.34.45-.84.68-1.27.69-.93.03-1.48-.51-1.84-1.35l-2.03.09-.22-4.63,1.16-.04ZM59.48,102.46c-.6.64-1.49.74-2.2.32-.48-.28-.76-.71-.95-1.23l-1.98.1-.23-4.88c.4-.03.73-.05,1.09-.04l.14,3.7.93-.03c.17-.61.47-1.14,1.01-1.43.68-.36,1.48-.28,2.05.24.93.84,1.02,2.32.14,3.25ZM54.38,112.13c.38-.26.43-.65.41-1.04l-.09-1.96.95-.05c-.02,1.18.4,2.55-.61,3.3-.37.28-.87.39-1.33.22l.68-.46ZM45.37,85.2c-1.83,2.06-4.16,3.67-6.76,4.69-.92.36-2.95.92-3.55,0-.58-.89.6-2.47,1.25-3.17,1.89-2.06,4.28-3.66,6.94-4.62.81-.29,1.63-.44,2.43-.33.68.09,1.04.64.89,1.27-.19.81-.62,1.5-1.2,2.16ZM46.86,97.93c.94-1.06,2.48-1.06,3.45-.05l1.92-1.17c-.74-2.95-1.64-4.9-2.69-7.43l1.94-.93,1.05-.15.44,9.34-2.05,1.33c.39,1.1.2,2.27-.58,3.1-.89.95-2.32,1.02-3.29.13-1.17-1.08-1.26-2.96-.2-4.15ZM47.4,104.99c.89-1,2.3-.98,3.23-.1l1.61-1.05-.21-4.3,1.01-.66.27,5.63-2.06,1.33c.33.92.24,1.9-.29,2.69-.81,1.18-2.39,1.38-3.43.37-1.07-1.04-1.16-2.79-.14-3.92ZM51.03,115.5c-.82.83-2.1.87-2.97.03-1.08-1.03-1.09-2.75-.09-3.8.8-.84,2.08-.88,2.93-.1l1.66-1.07-.19-4.03,1.01-.64.25,5.07c-.02.24-.14.38-.32.5l-1.74,1.12c.4,1.03.23,2.16-.54,2.94ZM57.84,116.26c.19,1.33-.73,2.57-2.06,2.77-1.33.19-2.57-.73-2.77-2.06s.73-2.57,2.06-2.77c.45-.07.89,0,1.28.17l2.2-2.95.98.73-2.2,2.96c.26.33.44.71.51,1.15ZM60.09,108.65c-.63.87-1.76,1.07-2.61.5-.46-.31-.73-.74-.91-1.28l-1.92.08-.25-5.15,1.03-.03.15,3.99.93-.05c.14-.54.37-1.02.8-1.36.77-.62,1.83-.57,2.54.14.84.83.95,2.17.24,3.16ZM60.95,91.48c.03.38-.31.62-.59.61-.32-.01-.54-.25-.56-.59l-.56-7.49c-.21-.01-.41-.01-.55,0-.24.71-.77,1.23-1.49,1.23-.49,0-.9-.21-1.2-.59-.41-.51-.53-1.24-.29-1.86.28-.71.95-1.17,1.7-1.04.6.11,1.01.55,1.22,1.1l.52-.04-.31-4.1-.6.03c-.24.8-1,1.3-1.8,1.02-.78-.27-1.15-1.09-1.01-1.88.1-.58.47-1.08,1.04-1.24.74-.21,1.44.22,1.72.93l.56-.04-.29-3.84c-.23,0-.43.01-.65.04-.27.77-1.05,1.18-1.78.83-.51-.25-.78-.78-.82-1.25-.04-.6.19-1.12.67-1.43.68-.44,1.56-.1,1.87.66l.61-.03-.27-3.58c-.27,0-.49,0-.7.04-.24.63-.85.97-1.46.77-.46-.15-.74-.56-.83-.93-.13-.47-.05-.91.24-1.28.26-.34.66-.52,1.05-.47.41.05.75.3.95.7.2.04.46.02.67-.02l-.25-3.33-.77.05c-.26.62-.97.89-1.52.53-.66-.43-.76-1.35-.27-1.95.24-.29.6-.4.9-.37.4.04.64.28.87.61l1.34-.04c.3,0,.54.23.56.54l2.08,27.69Z"/><path class="cls-2" d="M43.18,83.02c-2.24.79-4.29,2.12-5.92,3.85-.72.76-1.33,1.79-1.05,2.2.13.19.47.24.74.24.6,0,1.35-.21,1.86-.4,2.22-.85,4.22-2.2,5.77-3.91.52-.57.82-1.1.96-1.67.05-1.23-2.35-.32-2.35-.32Z"/><path class="cls-2" d="M44.57,85c-1.55,1.71-3.55,3.06-5.77,3.91-.51.19-1.26.4-1.86.4-.26,0-.61-.04-.74-.24-.28-.41.33-1.44,1.05-2.2,1.63-1.73,3.68-3.06,5.92-3.85,0,0,2.4-.91,2.35.32-.13.56-.44,1.09-.96,1.67Z"/><path class="cls-2" d="M132.01,110.33v-9.69h1.76v8.47h2.34v1.22h-4.1Z"/><path class="cls-2" d="M140.12,110.33l1.93-9.69h1.88l1.93,9.69h-1.63l-.38-2.24h-1.68l-.39,2.24h-1.66ZM142.35,106.97h1.31l-.66-4.07-.66,4.07Z"/><path class="cls-2" d="M150.36,110.33v-9.69h1.23l2.35,5.53v-5.53h1.45v9.69h-1.17l-2.36-5.79v5.79h-1.5Z"/><path class="cls-2" d="M162.85,110.46c-.64,0-1.14-.14-1.51-.41-.37-.27-.64-.66-.8-1.15-.16-.5-.24-1.09-.24-1.76v-3.25c0-.69.08-1.29.24-1.79.16-.5.44-.89.84-1.16.4-.27.96-.4,1.66-.4.66,0,1.18.11,1.57.33.39.22.67.54.84.96.17.42.26.93.26,1.53v.5h-1.68v-.55c0-.31-.02-.58-.07-.8-.04-.22-.13-.39-.26-.51-.13-.12-.34-.17-.64-.17-.31,0-.54.08-.67.23s-.23.35-.26.6c-.04.25-.05.52-.05.81v4.06c0,.33.03.63.08.87.06.25.16.44.31.57.15.13.37.2.64.2s.5-.07.66-.21c.15-.14.26-.34.32-.6.06-.25.09-.56.09-.91v-.91h-1.04v-1.11h2.62v4.92h-1.13l-.13-.96c-.13.32-.32.58-.58.78-.26.2-.61.31-1.05.31Z"/><path class="cls-2" d="M170.67,110.33v-9.69h4.05v1.24h-2.29v2.79h1.8v1.23h-1.8v3.21h2.31v1.22h-4.08Z"/><path class="cls-2" d="M179.35,110.33v-9.69h1.23l2.35,5.53v-5.53h1.45v9.69h-1.17l-2.36-5.79v5.79h-1.5Z"/><path class="cls-2" d="M189.44,110.33v-9.69h1.75v4.06h1.97v-4.06h1.76v9.69h-1.76v-4.38h-1.97v4.38h-1.75Z"/><path class="cls-2" d="M199.49,110.33l1.93-9.69h1.88l1.93,9.69h-1.63l-.38-2.24h-1.68l-.39,2.24h-1.66ZM201.72,106.97h1.31l-.66-4.07-.66,4.07Z"/><path class="cls-2" d="M212.09,110.46c-.64,0-1.14-.14-1.51-.41-.37-.27-.64-.66-.8-1.15-.16-.5-.24-1.09-.24-1.76v-3.25c0-.69.08-1.29.24-1.79.16-.5.44-.89.84-1.16.4-.27.96-.4,1.66-.4.66,0,1.18.11,1.57.33.39.22.67.54.84.96.17.42.26.93.26,1.53v.5h-1.68v-.55c0-.31-.02-.58-.07-.8-.04-.22-.13-.39-.26-.51-.13-.12-.34-.17-.64-.17-.31,0-.53.08-.67.23-.14.15-.23.35-.26.6-.04.25-.05.52-.05.81v4.06c0,.33.03.63.08.87.06.25.16.44.31.57.15.13.37.2.64.2s.5-.07.66-.21.26-.34.32-.6c.06-.25.09-.56.09-.91v-.91h-1.04v-1.11h2.62v4.92h-1.13l-.13-.96c-.13.32-.32.58-.58.78-.26.2-.61.31-1.06.31Z"/><path class="cls-2" d="M219.91,110.33v-9.69h4.05v1.24h-2.29v2.79h1.8v1.23h-1.8v3.21h2.31v1.22h-4.08Z"/><path class="cls-2" d="M228.59,110.33v-9.69h1.23l2.35,5.53v-5.53h1.45v9.69h-1.17l-2.36-5.79v5.79h-1.5Z"/><path class="cls-2" d="M74.85,87.75v-3.4c1.04,0,1.88-.07,2.52-.21.64-.14,1.14-.39,1.49-.76.35-.36.59-.89.74-1.58.14-.69.21-1.56.21-2.63v-26.26h4.71v26.34c0,1.96-.21,3.56-.63,4.81-.42,1.25-1.16,2.17-2.23,2.77-1.06.6-2.58.9-4.54.9h-2.27Z"/><path class="cls-2" d="M88.75,86.95l7.23-34.03h4.58l7.27,34.03h-4.49l-1.55-8.57h-6.93l-1.64,8.57h-4.45ZM95.47,74.98h5.67l-2.86-15.33-2.81,15.33Z"/><path class="cls-2" d="M110.98,86.95v-3.4l10-27.22h-9.37v-3.4h14.41v2.06l-10.55,28.57h10.55v3.4h-15.04Z"/><path class="cls-2" d="M129.25,86.95v-3.4l10-27.22h-9.37v-3.4h14.41v2.06l-10.55,28.57h10.55v3.4h-15.04Z"/><path class="cls-3" d="M158.87,86.95l.63-34.03h4.66l6.01,27.6,6.05-27.6h4.62l.63,34.03h-3.82l-.38-24.7-5.76,24.7h-2.69l-5.71-24.7-.38,24.7h-3.87Z"/><path class="cls-3" d="M185.59,86.95l7.23-34.03h4.58l7.27,34.03h-4.5l-1.55-8.57h-6.93l-1.64,8.57h-4.45ZM192.31,74.98h5.67l-2.86-15.33-2.81,15.33Z"/><path class="cls-3" d="M211.26,86.95v-30.5h-5.76v-3.53h16.09v3.53h-5.59v30.5h-4.75Z"/><path class="cls-3" d="M225.88,86.95v-34.03h4.66v34.03h-4.66Z"/><path class="cls-3" d="M236.8,86.95v-34.03h3.24l9.66,22.6v-22.6h3.95v34.03h-3.03l-9.79-23.23v23.23h-4.03Z"/><path class="cls-3" d="M259.74,86.95v-34.03h13.19v3.53h-8.44v11.26h6.85v3.36h-6.85v12.48h8.53v3.4h-13.28Z"/><path class="cls-3" d="M277.6,86.95v-34.03h13.19v3.53h-8.44v11.26h6.85v3.36h-6.85v12.48h8.53v3.4h-13.28Z"/><rect class="cls-2" x="243.5" y="104.81" width="47.35" height="2"/><rect class="cls-2" x="74.69" y="104.81" width="47.35" height="2"/></svg>